<svg width="38" height="38" viewBox="0 0 38 38" fill="none" xmlns="http://www.w3.org/2000/svg">
  <!-- Pin shape with shadow -->
  <filter id="shadow" x="-2" y="2" width="110%" height="110%">
    <feDropShadow dx="0" dy="1" stdDeviation="1.5" flood-opacity="0.3"/>
  </filter>
  
  <!-- Main pin body -->
  <path d="M19 3C11.268 3 5 9.268 5 17C5 28 19 35 19 35C19 35 33 28 33 17C33 9.268 26.732 3 19 3Z" 
        fill="#8B5CF6" 
        filter="url(#shadow)"/>
  
  <!-- Inner circle -->
  <circle cx="19" cy="17" r="7" fill="white"/>
  
  <!-- Briefcase icon -->
  <path d="M23 15H21V14C21 13.4696 20.7893 12.9609 20.4142 12.5858C20.0391 12.2107 19.5304 12 19 12H17C16.4696 12 15.9609 12.2107 15.5858 12.5858C15.2107 12.9609 15 13.4696 15 14V15H13C12.7348 15 12.4804 15.1054 12.2929 15.2929C12.1054 15.4804 12 15.7348 12 16V21C12 21.2652 12.1054 21.5196 12.2929 21.7071C12.4804 21.8946 12.7348 22 13 22H23C23.2652 22 23.5196 21.8946 23.7071 21.7071C23.8946 21.5196 24 21.2652 24 21V16C24 15.7348 23.8946 15.4804 23.7071 15.2929C23.5196 15.1054 23.2652 15 23 15ZM16 14C16 13.7348 16.1054 13.4804 16.2929 13.2929C16.4804 13.1054 16.7348 13 17 13H19C19.2652 13 19.5196 13.1054 19.7071 13.2929C19.8946 13.4804 20 13.7348 20 14V15H16V14Z" 
        fill="#8B5CF6"/>
</svg> 