<svg width="38" height="38" viewBox="0 0 38 38" fill="none" xmlns="http://www.w3.org/2000/svg">
  <!-- Pin shape with shadow -->
  <filter id="shadow" x="-2" y="2" width="110%" height="110%">
    <feDropShadow dx="0" dy="1" stdDeviation="1.5" flood-opacity="0.3"/>
  </filter>
  
  <!-- Main pin body -->
  <path d="M19 3C11.268 3 5 9.268 5 17C5 28 19 35 19 35C19 35 33 28 33 17C33 9.268 26.732 3 19 3Z" 
        fill="#3B82F6" 
        filter="url(#shadow)"/>
  
  <!-- Inner circle -->
  <circle cx="19" cy="17" r="7" fill="white"/>
  
  <!-- Parent and child icon -->
  <path d="M21 13.5C21 14.3284 20.3284 15 19.5 15C18.6716 15 18 14.3284 18 13.5C18 12.6716 18.6716 12 19.5 12C20.3284 12 21 12.6716 21 13.5Z" fill="#3B82F6"/>
  <path d="M17 16.5C17 17.3284 16.3284 18 15.5 18C14.6716 18 14 17.3284 14 16.5C14 15.6716 14.6716 15 15.5 15C16.3284 15 17 15.6716 17 16.5Z" fill="#3B82F6"/>
  <path d="M19.5 15.5C19.5 15.5 18 18.5 15.5 18.5V22H19.5V20H20.5C21.6046 20 22.5 19.1046 22.5 18V16.5H21C20.1716 16.5 19.5 15.8284 19.5 15V15.5Z" fill="#3B82F6"/>
</svg> 